<svg xmlns="http://www.w3.org/2000/svg" viewBox="0 0 1200 630" width="1200" height="630">
  <defs>
    <linearGradient id="bg-gradient" x1="0%" y1="0%" x2="100%" y2="100%">
      <stop offset="0%" stop-color="#4a1d6a"/>
      <stop offset="100%" stop-color="#6b21a8"/>
    </linearGradient>
    <filter id="softShadow">
      <feDropShadow dx="0" dy="8" stdDeviation="12" flood-color="#000000" flood-opacity="0.2"/>
    </filter>
  </defs>
  
  <!-- Fondo con gradiente -->
  <rect width="1200" height="630" fill="url(#bg-gradient)"/>
  
  <!-- Círculos decorativos de fondo -->
  <circle cx="200" cy="150" r="250" fill="#ffffff" opacity="0.03"/>
  <circle cx="1000" cy="500" r="300" fill="#ffffff" opacity="0.03"/>
  <circle cx="600" cy="315" r="200" fill="#ffffff" opacity="0.02"/>
  
  <!-- Tarjetas decorativas Pokéball (izquierda) -->
  <g transform="translate(100, 180)">
    <circle cx="80" cy="80" r="70" fill="#ffffff" opacity="0.1" filter="url(#softShadow)"/>
    <circle cx="80" cy="80" r="60" fill="#1a1a2e"/>
    <path d="M80 30 A50 50 0 0 1 80 130" fill="#ef4444"/>
    <rect x="75" y="75" width="10" height="10" rx="5" fill="#ffffff"/>
  </g>
  
  <!-- Tarjeta decorativa (centro) -->
  <g transform="translate(480, 160)">
    <rect width="240" height="320" rx="16" fill="#ffffff" opacity="0.1" filter="url(#softShadow)"/>
    <rect x="15" y="15" width="210" height="240" rx="8" fill="#1a1a2e"/>
    <rect x="25" y="25" width="190" height="160" rx="4" fill="#2d2d44"/>
    <!-- Ilustración simplificada de carta -->
    <circle cx="120" cy="105" r="60" fill="#fbbf24" opacity="0.8"/>
    <ellipse cx="120" cy="140" rx="70" ry="40" fill="#3b82f6" opacity="0.6"/>
    <rect x="30" y="270" width="180" height="12" rx="3" fill="#ffffff" opacity="0.5"/>
    <rect x="30" y="290" width="120" height="12" rx="3" fill="#ffffff" opacity="0.3"/>
  </g>
  
  <!-- Tarjeta decorativa (derecha) -->
  <g transform="translate(850, 200)">
    <circle cx="60" cy="60" r="50" fill="#ffffff" opacity="0.1" filter="url(#softShadow)"/>
    <circle cx="60" cy="60" r="42" fill="#1a1a2e"/>
    <path d="M60 28 A32 32 0 0 1 60 92" fill="#fbbf24"/>
    <rect x="56" y="56" width="8" height="8" rx="4" fill="#1a1a2e"/>
  </g>
  
  <!-- Título principal -->
  <text x="600" y="80" text-anchor="middle" font-family="Arial, sans-serif" font-size="52" font-weight="bold" fill="#fbbf24">
    Mejores Tiendas para Comprar
  </text>
  <text x="600" y="130" text-anchor="middle" font-family="Arial, sans-serif" font-size="42" font-weight="bold" fill="#ffffff">
    Cartas Pokémon en México
  </text>
  <text x="600" y="175" text-anchor="middle" font-family="Arial, sans-serif" font-size="24" fill="#d1d5db">
    Guía completa
  </text>
  
  <!-- Iconos de ubicación -->
  <g transform="translate(350, 480)">
    <circle cx="30" cy="30" r="25" fill="#ffffff" opacity="0.15"/>
    <path d="M30 15 L40 40 L20 40 Z" fill="#fbbf24"/>
    <rect x="22" y="40" width="16" height="12" fill="#fbbf24"/>
  </g>
  <text x="420" y="510" font-family="Arial, sans-serif" font-size="20" fill="#d1d5db">CDMX</text>
  
  <g transform="translate(550, 480)">
    <circle cx="30" cy="30" r="25" fill="#ffffff" opacity="0.15"/>
    <path d="M30 15 L40 40 L20 40 Z" fill="#3b82f6"/>
    <rect x="22" y="40" width="16" height="12" fill="#3b82f6"/>
  </g>
  <text x="620" y="510" font-family="Arial, sans-serif" font-size="20" fill="#d1d5db">Guadalajara</text>
  
  <g transform="translate(750, 480)">
    <circle cx="30" cy="30" r="25" fill="#ffffff" opacity="0.15"/>
    <path d="M30 15 L40 40 L20 40 Z" fill="#10b981"/>
    <rect x="22" y="40" width="16" height="12" fill="#10b981"/>
  </g>
  <text x="820" y="510" font-family="Arial, sans-serif" font-size="20" fill="#d1d5db">Monterrey</text>
  
  <!-- Footer con branding -->
  <rect x="0" y="580" width="1200" height="50" fill="#1a1a2e"/>
  <text x="600" y="612" text-anchor="middle" font-family="Arial, sans-serif" font-size="18" font-weight="bold" fill="#fbbf24">tcglat</text>
</svg>