<svg xmlns="http://www.w3.org/2000/svg" viewBox="0 0 200 150">
  <rect width="200" height="150" fill="#E8F5E9"/>
  <rect x="25" y="25" width="150" height="110" rx="10" fill="#40C057" stroke="#2F9E44" stroke-width="3"/>
  <path d="M100 40 Q80 60 85 80 Q90 100 100 110 Q110 100 115 80 Q120 60 100 40 Z" fill="#2F9E44"/>
  <path d="M100 50 Q85 65 88 80 Q92 95 100 100 Q108 95 112 80 Q115 65 100 50 Z" fill="#51CF66"/>
  <path d="M95 70 Q100 65 105 70 Q105 80 100 85 Q95 80 95 70 Z" fill="#69DB7C"/>
  <line x1="100" y1="35" x2="100" y2="50" stroke="#2F9E44" stroke-width="2"/>
  <circle cx="60" cy="55" r="10" fill="#FF6B6B" opacity="0.7"/>
  <circle cx="140" cy="50" r="8" fill="#74C0FC" opacity="0.7"/>
  <circle cx="55" cy="105" r="6" fill="#FFE066" opacity="0.7"/>
  <circle cx="145" cy="100" r="6" fill="#9775FA" opacity="0.7"/>
  <text x="100" y="145" text-anchor="middle" font-family="Arial" font-size="12" font-weight="bold" fill="#212529">VERDE HOJA</text>
</svg>